<svg xmlns="http://www.w3.org/2000/svg" viewBox="0 0 121.4 121.41"><title>Asset 3</title><g id="Layer_2" data-name="Layer 2"><g id="ui-router"><g id="plain"><path d="M22.2,0A22.26,22.26,0,0,0,0,22.2v77a22.26,22.26,0,0,0,22.2,22.2h77a22.26,22.26,0,0,0,22.19-22.2v-77A22.26,22.26,0,0,0,99.21,0h-77ZM40.36,67.69l-.64-.94-.64-.94c.22-1.2,4.46-10.47,9.42-20.58S58.33,26,59.33,24.94h2.73c1,1.05,5.88,10.19,10.84,20.3S82.07,64,82.25,64.53V65a3.08,3.08,0,0,1-.56,1.76l-.64.94c-1.27.32-10.42.58-20.34.58S41.63,68,40.36,67.69ZM76.53,96.24l-.25-.36L76,95.52c.09-.47,1.73-4.06,3.65-8a79.74,79.74,0,0,1,4.2-7.87h1.06a78.41,78.41,0,0,1,4.2,7.87c1.92,3.92,3.55,7.28,3.62,7.48v.18a1.2,1.2,0,0,1-.22.68l-.25.36c-.49.12-4,.22-7.88.22s-7.39-.1-7.88-.22Zm-23.71,0-.25-.36-.25-.36c.08-.47,1.73-4.06,3.65-8a79,79,0,0,1,4.2-7.87h1.06a79,79,0,0,1,4.2,7.87C67.35,91.46,69,94.82,69,95v.18a1.19,1.19,0,0,1-.21.68l-.25.36c-.49.12-4,.22-7.88.22S53.31,96.37,52.82,96.24Zm-23.71,0-.25-.36-.25-.36c.08-.47,1.72-4.06,3.65-8a79.68,79.68,0,0,1,4.2-7.87h1.06a78.41,78.41,0,0,1,4.2,7.87c1.92,3.92,3.55,7.28,3.62,7.48v.18a1.2,1.2,0,0,1-.21.68l-.25.36c-.49.12-4,.22-7.88.22s-7.39-.1-7.88-.22Z"/></g></g></g></svg>